<svg xmlns="http://www.w3.org/2000/svg" width="590.236" height="481.075" viewBox="0 0 590.236 481.075">
  <g id="excavator" transform="translate(-1.674 -48.799)" opacity="0.3">
    <path id="Path_1" data-name="Path 1" d="M499.848,369.8H243.2a47.9,47.9,0,1,0,0,95.795H499.848a47.9,47.9,0,1,0,0-95.795Z" transform="translate(30.93 51.277)" fill="#6d7486"/>
    <path id="Path_2" data-name="Path 2" d="M231,293.2v43.49H417.255V293.2Z" transform="translate(36.633 39.041)" fill="#edb740"/>
    <path id="Path_3" data-name="Path 3" d="M353.121,271.591v28.993H231V287.131a183.709,183.709,0,0,1,2.2-28.762c.58-3.6,1.276-7.19,2.088-10.67h43.258l18.324,23.891Z" transform="translate(36.633 31.773)" fill="#f9d438"/>
    <path id="Path_4" data-name="Path 4" d="M336.3,268.3h64.25v28.994H336.3Z" transform="translate(53.454 35.063)" fill="#e8aa46"/>
    <path id="Path_5" data-name="Path 5" d="M385.6,164.6H336.2V284.865h64.25V179.445A14.8,14.8,0,0,0,385.6,164.6Z" transform="translate(53.438 18.498)" fill="#55d8d8"/>
    <path id="Path_6" data-name="Path 6" d="M82.8,65.634a12.372,12.372,0,0,1-1.624,6.031A11.372,11.372,0,0,1,71.782,77,11.252,11.252,0,1,1,82.8,65.518Z" transform="translate(9.365 0.91)" fill="#fb6771"/>
    <path id="Path_7" data-name="Path 7" d="M246.021,150.1a112.779,112.779,0,0,0-53.7-13.8H126.8v38.387l69.353,6.147,62.626,63.438,40.939-64.83Z" transform="translate(19.988 13.978)" fill="#f9d438"/>
    <path id="Path_8" data-name="Path 8" d="M111.383,172.568,88.536,170.6a17.085,17.085,0,0,1,1.624-34.1h45.114v38.387Z" transform="translate(11.398 14.01)" fill="#edb740"/>
    <path id="Path_9" data-name="Path 9" d="M25.792,288.732a10.742,10.742,0,0,1-7.074,2.667,11.252,11.252,0,0,1,0-22.5,9.77,9.77,0,0,1,4.059.812,11.342,11.342,0,0,1,6.147,14.845A15.765,15.765,0,0,1,25.792,288.732Z" transform="translate(0.962 35.159)" fill="#fb6771"/>
    <path id="Path_10" data-name="Path 10" d="M86.666,112.3l27.022,27.95H92.464a17.15,17.15,0,0,0-1.74,34.212l22.847,1.972-20.18,14.5-11.945,148.1A20.836,20.836,0,0,0,58.6,341.465V112.3Z" transform="translate(9.093 10.144)" fill="#f9d438"/>
    <path id="Path_11" data-name="Path 11" d="M88.439,312.077l17.512,18.092L61.069,363.453,47.5,323.21l11.481-11.481a13.908,13.908,0,0,1,1.392-1.276A20.625,20.625,0,0,1,88.439,312.077Z" transform="translate(7.32 41.04)" fill="#d4e1f4"/>
    <path id="Path_12" data-name="Path 12" d="M160.232,369.278l28.3-18.092s0,79.906-52.072,93.243a56.036,56.036,0,0,1-51.145-12.873L54,403.607l6.147-43.722L105.029,326.6l3.479,31.429Z" transform="translate(8.359 44.376)" fill="#b0b5ca"/>
    <path id="Path_13" data-name="Path 13" d="M352.53,164.6V284.865H296.4l-18.324-23.891H234.7a148.9,148.9,0,0,1,6.726-21.107,146.854,146.854,0,0,1,16.932-30.733l24.123-34.1L289.9,164.6Z" transform="translate(37.224 18.498)" fill="#7ce5e9"/>
    <path id="Path_14" data-name="Path 14" d="M504.095,235.4H391.6v99.042H504.095a16.284,16.284,0,0,0,16.236-16.236V251.636A16.21,16.21,0,0,0,504.095,235.4Z" transform="translate(62.288 29.808)" fill="#f9d438"/>
    <path id="Path_15" data-name="Path 15" d="M475.161,216.6H428.539a4.653,4.653,0,0,0-4.639,4.639V238.4h55.9V221.239A4.653,4.653,0,0,0,475.161,216.6Z" transform="translate(67.447 26.805)" fill="#b0b5ca"/>
    <path id="Path_16" data-name="Path 16" d="M463.01,166.2v58.451H436.8V166.2h26.21Z" transform="translate(69.508 18.754)" fill="#ccd3df"/>
    <path id="Path_17" data-name="Path 17" d="M292.3,330.7H394.937v45.346H292.3Z" transform="translate(46.425 45.031)" fill="#7878a0"/>
    <path id="Path_18" data-name="Path 18" d="M230.192,417.6a48.061,48.061,0,0,1,47.9-47.9H243.3a47.9,47.9,0,1,0,0,95.795H278.09a47.837,47.837,0,0,1-47.9-47.9Z" transform="translate(30.946 51.261)" fill="#596070"/>
    <path id="Path_19" data-name="Path 19" d="M265.792,293.2H231v43.49h34.792V293.2Z" transform="translate(36.633 39.041)" fill="#ffd98d"/>
    <path id="Path_20" data-name="Path 20" d="M265.792,287.031A183.709,183.709,0,0,1,268,258.27c.58-3.6,1.276-7.19,2.088-10.67H235.291c-.812,3.6-1.508,7.074-2.088,10.67a183.706,183.706,0,0,0-2.2,28.762v13.453h34.792Z" transform="translate(36.633 31.757)" fill="#ffe98d"/>
    <path id="Path_21" data-name="Path 21" d="M82.292,323.2l8.582-8.582-2.435-2.552a20.617,20.617,0,0,0-28.066-1.508,13.9,13.9,0,0,0-1.392,1.276L47.5,323.318l13.569,40.243L88.9,342.918Z" transform="translate(7.32 41.048)" fill="#b8c2d1"/>
    <path id="Path_22" data-name="Path 22" d="M88.692,401.966l6.147-43.722L87.88,337.6,60.047,358.243,53.9,401.966l31.313,27.95a56.116,56.116,0,0,0,51.145,12.873c1.276-.348,2.551-.7,3.827-1.16a58.438,58.438,0,0,1-20.3-11.713Z" transform="translate(8.343 46.134)" fill="#9ca4bc"/>
    <path id="Path_23" data-name="Path 23" d="M276.235,239.767a151.87,151.87,0,0,1,16.816-30.733l24.123-34.1L324.6,164.5H289.8l-7.422,10.438-24.123,34.1a158.243,158.243,0,0,0-16.932,30.733,135.353,135.353,0,0,0-6.727,21.107h34.792a165.979,165.979,0,0,1,6.842-21.107Z" transform="translate(37.208 18.482)" fill="#bff"/>
    <path id="Path_24" data-name="Path 24" d="M292.3,330.7h34.792v45.346H292.3Z" transform="translate(46.425 45.031)" fill="#7878a0"/>
    <circle id="Ellipse_1" data-name="Ellipse 1" cx="23.311" cy="23.311" r="23.311" transform="translate(508.395 445.664)" fill="#8787af"/>
    <circle id="Ellipse_2" data-name="Ellipse 2" cx="23.311" cy="23.311" r="23.311" transform="translate(422.806 445.664)" fill="#8787af"/>
    <circle id="Ellipse_3" data-name="Ellipse 3" cx="23.311" cy="23.311" r="23.311" transform="translate(251.513 445.664)" fill="#8787af"/>
    <circle id="Ellipse_4" data-name="Ellipse 4" cx="23.311" cy="23.311" r="23.311" transform="translate(337.102 445.664)" fill="#8787af"/>
    <g id="Group_1" data-name="Group 1" transform="translate(1.674 48.799)">
      <path id="Path_25" data-name="Path 25" d="M268.922,304.8H248.858a6.958,6.958,0,0,0,0,13.917h20.064a6.958,6.958,0,1,0,0-13.917Z" transform="translate(36.7 -7.905)" fill="#284268"/>
      <path id="Path_26" data-name="Path 26" d="M471.927,256.6H458.358a6.958,6.958,0,0,0,0,13.917h13.569a6.958,6.958,0,1,0,0-13.917Z" transform="translate(70.166 -15.604)" fill="#284268"/>
      <path id="Path_27" data-name="Path 27" d="M471.927,274.5H458.358a6.958,6.958,0,0,0,0,13.917h13.569a6.958,6.958,0,0,0,0-13.917Z" transform="translate(70.166 -12.745)" fill="#284268"/>
      <path id="Path_28" data-name="Path 28" d="M471.927,292.5H458.358a6.958,6.958,0,0,0,0,13.917h13.569a6.958,6.958,0,0,0,0-13.917Z" transform="translate(70.166 -9.87)" fill="#284268"/>
      <path id="Path_29" data-name="Path 29" d="M433.068,256.6H420.658a6.958,6.958,0,0,0,0,13.917h12.409a6.958,6.958,0,0,0,0-13.917Z" transform="translate(64.144 -15.604)" fill="#284268"/>
      <path id="Path_30" data-name="Path 30" d="M433.068,274.5H420.658a6.958,6.958,0,0,0,0,13.917h12.409a6.958,6.958,0,0,0,0-13.917Z" transform="translate(64.144 -12.745)" fill="#284268"/>
      <path id="Path_31" data-name="Path 31" d="M433.068,292.5H420.658a6.958,6.958,0,0,0,0,13.917h12.409a6.958,6.958,0,0,0,0-13.917Z" transform="translate(64.144 -9.87)" fill="#284268"/>
      <path id="Path_32" data-name="Path 32" d="M585.17,462.132a50.96,50.96,0,0,0-3.827-14.265,7.037,7.037,0,0,0,1.856-9.626,6.93,6.93,0,0,0-8.814-2.319,55.6,55.6,0,0,0-10.438-10.438,7,7,0,0,0-3.363-9.278A6.892,6.892,0,0,0,552,418.526a50.963,50.963,0,0,0-14.265-3.827,7,7,0,0,0-7.538-6.379,6.8,6.8,0,0,0-6.263,5.915H512.223a6.922,6.922,0,0,0-13.685,0H486.824a6.922,6.922,0,0,0-13.685,0H461.426a6.861,6.861,0,0,0-7.886-5.8,7.065,7.065,0,0,0-4.987,3.479v-29.11h5.683a6.979,6.979,0,0,0,6.958-6.958v-4.523H566.73a23.263,23.263,0,0,0,23.195-23.195V281.56a23.263,23.263,0,0,0-23.195-23.195H554.437V248.16a11.632,11.632,0,0,0-11.6-11.6h-3.131V185.07a6.979,6.979,0,0,0-6.958-6.958h-6.726V154.453a3.366,3.366,0,0,1,3.363-3.363h3.943a6.958,6.958,0,0,0,0-13.917h-3.943a17.323,17.323,0,0,0-17.28,17.28v23.659H506.54a6.979,6.979,0,0,0-6.958,6.958v51.493H496.1a11.632,11.632,0,0,0-11.6,11.6v10.206H461.078V197.943a21.778,21.778,0,0,0-21.8-21.8H327.128a6.929,6.929,0,0,0-5.683,2.9l-3.827,5.335-48.361-26.326a119.659,119.659,0,0,0-54.972-14.613L98.891,69.56a13.737,13.737,0,0,0,.232-3.015A17.977,17.977,0,1,0,74.188,83.361v32.125H67.578a6.979,6.979,0,0,0-6.958,6.958v59.379L18.984,296.985A18.081,18.081,0,0,0,1.7,316,18.356,18.356,0,0,0,19.68,333.4a17.657,17.657,0,0,0,4.871-.7l24.123,34.676,12.641,37.692-5.915,42.1a6.843,6.843,0,0,0,2.319,6.147l31.313,27.95a63.97,63.97,0,0,0,42.331,16.352,61.357,61.357,0,0,0,15.193-1.972c23.775-6.147,41.287-25.63,50.565-56.363a168.506,168.506,0,0,0,6.842-43.606A6.979,6.979,0,0,0,197,388.72a6.9,6.9,0,0,0-3.711,1.044l-25.862,16.584-44.186-9.394-2.9-26.442a6.6,6.6,0,0,0-1.856-4.059l-17.744-18.208a33.028,33.028,0,0,0-3.015-2.667L109.212,204.9l15.541-11.134,88.14,7.77,57.639,58.451a158.662,158.662,0,0,0-5.451,17.86,113.53,113.53,0,0,0-2.2,11.25,197.3,197.3,0,0,0-2.319,29.805v56.943a6.979,6.979,0,0,0,6.958,6.958h64.134v27.37a6.967,6.967,0,0,0-9.858.232,6.638,6.638,0,0,0-1.856,3.827H308.224a6.922,6.922,0,0,0-13.685,0H281.086a6.861,6.861,0,0,0-7.886-5.8,7.139,7.139,0,0,0-5.915,6.263,51.733,51.733,0,0,0-14.381,3.827,7,7,0,0,0-12.061,6.958,52.36,52.36,0,0,0-10.438,10.438,7.046,7.046,0,0,0-9.278,3.479,6.929,6.929,0,0,0,2.319,8.582,51.733,51.733,0,0,0-3.827,14.381,6.91,6.91,0,0,0-6.263,7.538,7.036,7.036,0,0,0,6.263,6.263,55.236,55.236,0,0,0,3.827,14.265,6.906,6.906,0,0,0-1.74,9.626,7.063,7.063,0,0,0,8.814,2.319,55.6,55.6,0,0,0,10.438,10.438,6.905,6.905,0,0,0,3.131,9.278,6.812,6.812,0,0,0,8.814-2.435,53.839,53.839,0,0,0,14.265,3.711,6.928,6.928,0,0,0,13.8.348h13.337a6.955,6.955,0,0,0,13.8,0h11.713a6.955,6.955,0,0,0,13.8,0h11.713a6.955,6.955,0,0,0,13.8,0H370.85a6.955,6.955,0,0,0,13.8,0h11.713a6.955,6.955,0,0,0,13.8,0h11.713a6.955,6.955,0,0,0,13.8,0h11.713a6.955,6.955,0,0,0,13.8,0h11.713a6.955,6.955,0,0,0,13.8,0h11.713a6.955,6.955,0,0,0,13.8,0h11.713a7,7,0,0,0,13.917-.464A50.2,50.2,0,0,0,552,519.423a6.971,6.971,0,0,0,12.061-6.958A58.646,58.646,0,0,0,574.5,502.143a6.953,6.953,0,0,0,7.074-11.945,49.931,49.931,0,0,0,3.827-14.265,7,7,0,0,0,6.495-7.422,7.4,7.4,0,0,0-6.726-6.379Zm-71.9-270.22H525.56v44.534H513.266Zm-14.961,58.451h41.983v7.886H498.306Zm-37.46,21.8H566.383a9.305,9.305,0,0,1,9.278,9.278v66.569a9.305,9.305,0,0,1-9.278,9.278H460.846Zm-438.73,46.39a4.053,4.053,0,0,1-2.551.928,4.364,4.364,0,0,1-4.059-4.523,4.274,4.274,0,0,1,4.059-4.059,5.82,5.82,0,0,1,1.392.232,4.436,4.436,0,0,1,2.667,4.059A4.179,4.179,0,0,1,22.116,318.556Zm38.5,30.037-4.871,4.871L35.221,324.007a18.5,18.5,0,0,0-3.363-22.035L60.5,222.646V348.594ZM396.712,190.057h42.447a7.894,7.894,0,0,1,7.886,7.886v98.462H396.712Zm0,120.265h50.333V325.4H396.712ZM330.607,190.057H382.8V296.405H337.1l-16.236-21.223A6.921,6.921,0,0,0,315.3,272.4H281.086c1.16-3.943,2.551-7.77,4.059-11.6a144.659,144.659,0,0,1,16.12-29.341ZM88.1,83.36a14.184,14.184,0,0,0,3.363-1.972l96.954,61.93H125.8l-25.05-25.746a6.745,6.745,0,0,0-4.987-2.088H88.1ZM81.147,62.253a4.157,4.157,0,0,1,4.059,4.291,5.279,5.279,0,0,1-.58,2.319,4.045,4.045,0,0,1-3.479,1.972,4.364,4.364,0,0,1-4.059-4.523,4.274,4.274,0,0,1,4.059-4.059Zm21.571,308.027L88.8,380.718a6.958,6.958,0,0,0,8.35,11.134l10.67-7.886,2.2,19.484a6.908,6.908,0,0,0,5.451,6.031l51.84,11.018a7.466,7.466,0,0,0,5.219-.928l16.584-10.67c-2.551,22.035-11.829,64.482-45.926,73.18a49.246,49.246,0,0,1-44.882-11.365l-28.53-25.4L75,408.2l5.683-4.175a6.958,6.958,0,0,0-8.35-11.134l-.348.232-9.162-27.022,9.278-9.278A13.573,13.573,0,0,1,87.177,355.2a15.433,15.433,0,0,1,3.479,2.667ZM98.543,195.392a7.194,7.194,0,0,0-2.9,5.1L84.278,340.011a26.834,26.834,0,0,0-9.626.58V129.518H92.976l13.453,13.917h-4.871a24.12,24.12,0,0,0-2.319,48.129l4.175.348Zm41.171-14.265-39.2-3.479a10.239,10.239,0,0,1-9.162-11.134,10.093,10.093,0,0,1,10.09-9.162H139.6v23.775Zm81.3,8.814a7.512,7.512,0,0,0-4.291-2.088l-62.974-5.567v-25.05h58.567a104.485,104.485,0,0,1,50.333,12.873L309.5,195.74l-19.6,27.718a158.479,158.479,0,0,0-13.337,22.615Zm53.58,178.832V339.2H287a6.958,6.958,0,0,0,0-13.917H274.591v-6.495a182.016,182.016,0,0,1,2.088-27.6c.232-1.624.58-3.247.812-4.871H311.7l16.236,21.223a6.921,6.921,0,0,0,5.567,2.783h49.173V325.4H310.311a6.958,6.958,0,1,0,0,13.917H446.929v29.573ZM434.4,382.69v28.182a6.99,6.99,0,0,0-9.742-1.276A7.292,7.292,0,0,0,421.995,414H410.281a6.922,6.922,0,0,0-13.685,0H384.767a6.922,6.922,0,0,0-13.685,0H359.253a6.861,6.861,0,0,0-7.886-5.8,6.944,6.944,0,0,0-5.683,5.219V382.69ZM559.656,497.852a40.823,40.823,0,0,1-28.878,12.061H274.128a40.939,40.939,0,0,1,0-81.878H530.778a40.908,40.908,0,0,1,40.939,40.823,41.5,41.5,0,0,1-12.061,28.994Z" transform="translate(-1.674 -48.799)" fill="#284268"/>
      <path id="Path_33" data-name="Path 33" d="M271.394,409.358l-.7-2.783a6.99,6.99,0,0,0-1.276-9.742,6.9,6.9,0,0,0-5.1-1.392c-.7-.7-1.276-1.392-1.972-1.972a6.936,6.936,0,0,0-5.915-7.77,7.048,7.048,0,0,0-5.219,1.392,12.237,12.237,0,0,0-2.783-.7,7,7,0,0,0-9.046-3.827,7.265,7.265,0,0,0-3.827,3.827l-2.783.7a6.99,6.99,0,0,0-9.742,1.276,6.9,6.9,0,0,0-1.392,5.1c-.7.7-1.392,1.276-1.972,1.972a6.936,6.936,0,0,0-7.77,5.915,7.048,7.048,0,0,0,1.392,5.219,12.233,12.233,0,0,0-.7,2.783,7,7,0,0,0-3.827,9.046,7.265,7.265,0,0,0,3.827,3.827l.7,2.783a6.97,6.97,0,0,0,6.495,11.134c.7.7,1.276,1.392,1.972,1.972a6.937,6.937,0,0,0,6.031,7.77,6.641,6.641,0,0,0,5.1-1.392,12.235,12.235,0,0,0,2.783.7,7,7,0,0,0,9.046,3.827,7.265,7.265,0,0,0,3.827-3.827l2.783-.7a6.99,6.99,0,0,0,9.742-1.276,6.9,6.9,0,0,0,1.392-5.1c.7-.7,1.392-1.276,1.972-1.972a6.936,6.936,0,0,0,7.77-5.915,7.048,7.048,0,0,0-1.392-5.219,12.235,12.235,0,0,0,.7-2.783,6.852,6.852,0,0,0,3.711-9.046,7.265,7.265,0,0,0-3.827-3.827Zm-29.573,22.731a16.352,16.352,0,1,1,16.352-16.352A16.333,16.333,0,0,1,241.821,432.089Z" transform="translate(31.329 4.439)" fill="#284268"/>
      <path id="Path_34" data-name="Path 34" d="M485.72,395.441c-.7-.7-1.276-1.392-1.972-1.972a6.937,6.937,0,0,0-6.031-7.77,6.64,6.64,0,0,0-5.1,1.392,12.237,12.237,0,0,0-2.783-.7,7,7,0,0,0-9.046-3.827,7.265,7.265,0,0,0-3.827,3.827l-2.783.7a6.97,6.97,0,0,0-11.134,6.495c-.7.7-1.392,1.276-1.972,1.972a6.936,6.936,0,0,0-7.77,5.915,7.048,7.048,0,0,0,1.392,5.219,12.233,12.233,0,0,0-.7,2.783,7,7,0,0,0-3.827,9.046A7.265,7.265,0,0,0,434,422.347l.7,2.783a6.97,6.97,0,0,0,6.495,11.133c.7.7,1.276,1.392,1.972,1.972a6.937,6.937,0,0,0,6.031,7.77,6.641,6.641,0,0,0,5.1-1.392,12.231,12.231,0,0,0,2.783.7,7,7,0,0,0,9.046,3.827,7.265,7.265,0,0,0,3.827-3.827l2.783-.7a6.99,6.99,0,0,0,9.742-1.276,6.9,6.9,0,0,0,1.392-5.1c.7-.7,1.392-1.276,1.972-1.972a6.936,6.936,0,0,0,7.77-5.915,7.048,7.048,0,0,0-1.392-5.219,12.231,12.231,0,0,0,.7-2.783,7,7,0,0,0,3.827-9.046,7.265,7.265,0,0,0-3.827-3.827l-.7-2.783a6.99,6.99,0,0,0-1.276-9.742,6.656,6.656,0,0,0-5.219-1.508Zm-22.383,36.648a16.352,16.352,0,1,1,16.352-16.352A16.333,16.333,0,0,1,463.337,432.089Z" transform="translate(66.696 4.439)" fill="#284268"/>
      <path id="Path_35" data-name="Path 35" d="M345.194,409.358l-.7-2.783a6.99,6.99,0,0,0-1.276-9.742,6.9,6.9,0,0,0-5.1-1.392c-.7-.7-1.276-1.392-1.972-1.972a6.936,6.936,0,0,0-5.915-7.77,7.048,7.048,0,0,0-5.219,1.392,12.237,12.237,0,0,0-2.783-.7,7,7,0,0,0-9.046-3.827,7.265,7.265,0,0,0-3.827,3.827l-2.783.7a6.99,6.99,0,0,0-9.742,1.276,6.9,6.9,0,0,0-1.392,5.1c-.7.7-1.392,1.276-1.972,1.972a6.936,6.936,0,0,0-7.77,5.915,7.049,7.049,0,0,0,1.392,5.219,12.234,12.234,0,0,0-.7,2.783,7,7,0,0,0-3.827,9.046,7.265,7.265,0,0,0,3.827,3.827l.7,2.783a6.97,6.97,0,0,0,6.495,11.134c.7.7,1.276,1.392,1.972,1.972a6.937,6.937,0,0,0,6.031,7.77,6.64,6.64,0,0,0,5.1-1.392,12.235,12.235,0,0,0,2.783.7,7,7,0,0,0,9.046,3.827,7.265,7.265,0,0,0,3.827-3.827l2.783-.7a6.99,6.99,0,0,0,9.742-1.276,6.9,6.9,0,0,0,1.392-5.1c.7-.7,1.392-1.276,1.972-1.972a6.936,6.936,0,0,0,7.77-5.915,7.048,7.048,0,0,0-1.392-5.219,12.234,12.234,0,0,0,.7-2.783,7,7,0,0,0,3.827-9.046A7.475,7.475,0,0,0,345.194,409.358Zm-29.573,22.731a16.352,16.352,0,1,1,16.352-16.352A16.333,16.333,0,0,1,315.621,432.089Z" transform="translate(43.118 4.439)" fill="#284268"/>
      <path id="Path_36" data-name="Path 36" d="M419.11,409.358l-.7-2.783a6.97,6.97,0,0,0-6.495-11.134c-.7-.7-1.276-1.392-1.972-1.972a6.936,6.936,0,0,0-5.915-7.77,7.049,7.049,0,0,0-5.219,1.392,12.236,12.236,0,0,0-2.783-.7,7,7,0,0,0-9.046-3.827,7.265,7.265,0,0,0-3.827,3.827l-2.783.7a6.99,6.99,0,0,0-9.742,1.276,6.9,6.9,0,0,0-1.392,5.1c-.7.7-1.392,1.276-1.972,1.972a6.936,6.936,0,0,0-7.77,5.915,7.049,7.049,0,0,0,1.392,5.219,12.234,12.234,0,0,0-.7,2.783,7,7,0,0,0-3.827,9.046,7.265,7.265,0,0,0,3.827,3.827l.7,2.783a6.97,6.97,0,0,0,6.495,11.134c.7.7,1.276,1.392,1.972,1.972a6.937,6.937,0,0,0,6.031,7.77,6.641,6.641,0,0,0,5.1-1.392,12.234,12.234,0,0,0,2.783.7,7,7,0,0,0,9.046,3.827,7.265,7.265,0,0,0,3.827-3.827l2.783-.7a6.99,6.99,0,0,0,9.742-1.276,6.9,6.9,0,0,0,1.392-5.1c.7-.7,1.392-1.276,1.972-1.972a6.936,6.936,0,0,0,7.77-5.915,7.048,7.048,0,0,0-1.392-5.219,12.231,12.231,0,0,0,.7-2.783,7,7,0,0,0,3.827-9.046A7.684,7.684,0,0,0,419.11,409.358Zm-29.573,22.731a16.352,16.352,0,1,1,16.352-16.352A16.333,16.333,0,0,1,389.537,432.089Z" transform="translate(54.907 4.439)" fill="#284268"/>
    </g>
  </g>
</svg>
