<svg xmlns="http://www.w3.org/2000/svg" width="40.937" height="39.914" viewBox="0 0 40.937 39.914">
  <path id="github_purple" d="M13.692,40.139c0,.165-.19.3-.429.3-.272.025-.462-.107-.462-.3,0-.165.19-.3.429-.3C13.478,39.817,13.692,39.949,13.692,40.139Zm-2.567-.371c-.058.165.107.355.355.4a.387.387,0,0,0,.512-.165c.05-.165-.107-.355-.355-.429a.424.424,0,0,0-.512.19Zm3.648-.14c-.239.058-.4.215-.38.4.025.165.239.272.487.215s.4-.215.38-.38S15.013,39.6,14.774,39.627ZM20.2,8A19.791,19.791,0,0,0,0,28.138,20.692,20.692,0,0,0,13.99,47.881c1.056.19,1.428-.462,1.428-1,0-.512-.025-3.334-.025-5.068,0,0-5.777,1.238-6.991-2.46,0,0-.941-2.4-2.294-3.021,0,0-1.89-1.3.132-1.271a4.357,4.357,0,0,1,3.186,2.129c1.807,3.186,4.837,2.27,6.017,1.725a4.587,4.587,0,0,1,1.321-2.781c-4.614-.512-9.269-1.18-9.269-9.12a6.255,6.255,0,0,1,1.948-4.861,7.8,7.8,0,0,1,.215-5.6c1.725-.536,5.695,2.228,5.695,2.228a19.5,19.5,0,0,1,10.366,0s3.97-2.773,5.695-2.228a7.794,7.794,0,0,1,.215,5.6,6.416,6.416,0,0,1,2.129,4.861c0,7.965-4.861,8.6-9.475,9.12a4.881,4.881,0,0,1,1.4,3.83c0,2.781-.025,6.223-.025,6.9,0,.536.38,1.188,1.428,1A20.5,20.5,0,0,0,40.937,28.138C40.937,16.691,31.652,8,20.2,8ZM8.022,36.466c-.107.083-.083.272.058.429.132.132.322.19.429.083.107-.083.083-.272-.058-.429C8.319,36.417,8.13,36.359,8.022,36.466ZM7.131,35.8c-.058.107.025.239.19.322a.246.246,0,0,0,.355-.058c.058-.107-.025-.239-.19-.322C7.321,35.69,7.189,35.715,7.131,35.8Zm2.674,2.938c-.132.107-.083.355.107.512.19.19.429.215.536.083.107-.107.058-.355-.107-.512C10.16,38.628,9.912,38.6,9.805,38.736Zm-.941-1.213c-.132.083-.132.3,0,.487s.355.272.462.19a.376.376,0,0,0,0-.512c-.116-.19-.33-.272-.462-.165Z" transform="translate(0 -8)" fill="#970ff1"/>
</svg>
