<svg xmlns="http://www.w3.org/2000/svg" width="40.937" height="40.928" viewBox="0 0 40.937 40.928">
  <path id="instagram_purple" d="M20.4,41.8A10.493,10.493,0,1,0,30.891,52.289,10.477,10.477,0,0,0,20.4,41.8Zm0,17.315a6.822,6.822,0,1,1,6.822-6.822A6.834,6.834,0,0,1,20.4,59.111Zm13.37-17.745a2.448,2.448,0,1,1-2.448-2.448A2.442,2.442,0,0,1,33.768,41.366Zm6.95,2.484c-.155-3.279-.9-6.183-3.306-8.576s-5.3-3.142-8.576-3.306c-3.379-.192-13.507-.192-16.886,0-3.269.155-6.174.9-8.576,3.3S.233,40.563.069,43.841c-.192,3.379-.192,13.507,0,16.886.155,3.279.9,6.183,3.306,8.576s5.3,3.142,8.576,3.306c3.379.192,13.507.192,16.886,0,3.279-.155,6.183-.9,8.576-3.306s3.142-5.3,3.306-8.576c.192-3.379.192-13.5,0-16.877Zm-4.365,20.5a6.907,6.907,0,0,1-3.89,3.89c-2.694,1.069-9.087.822-12.064.822s-9.379.237-12.064-.822a6.907,6.907,0,0,1-3.89-3.89c-1.069-2.694-.822-9.087-.822-12.064s-.237-9.379.822-12.064a6.907,6.907,0,0,1,3.89-3.89c2.694-1.069,9.087-.822,12.064-.822s9.379-.237,12.064.822a6.907,6.907,0,0,1,3.89,3.89c1.069,2.694.822,9.087.822,12.064S37.421,61.668,36.353,64.353Z" transform="translate(0.075 -31.825)" fill="#970ff1"/>
</svg>
