<svg xmlns="http://www.w3.org/2000/svg" width="40.937" height="40.937" viewBox="0 0 40.937 40.937">
  <path id="linkedin_purple" d="M38.013,32H2.915A2.937,2.937,0,0,0,0,34.951V69.985a2.937,2.937,0,0,0,2.915,2.951h35.1a2.944,2.944,0,0,0,2.924-2.951V34.951A2.944,2.944,0,0,0,38.013,32ZM12.372,67.089H6.305V47.552h6.077V67.089Zm-3.034-22.2a3.518,3.518,0,1,1,3.518-3.518A3.52,3.52,0,0,1,9.339,44.884Zm25.777,22.2H29.049v-9.5c0-2.266-.046-5.181-3.153-5.181-3.162,0-3.646,2.467-3.646,5.017v9.668H16.183V47.552H22v2.668h.082a6.391,6.391,0,0,1,5.748-3.153c6.141,0,7.283,4.048,7.283,9.311Z" transform="translate(0 -32)" fill="#970ff1"/>
</svg>
