<svg xmlns="http://www.w3.org/2000/svg" width="482" height="446" viewBox="0 0 482 446">
  <g id="under-construction" transform="translate(0 -18)">
    <g id="Group_2" data-name="Group 2">
      <path id="Path_37" data-name="Path 37" d="M35.25,275h90V464h-90Z" fill="#4e5a61"/>
      <path id="Path_38" data-name="Path 38" d="M35.25,18h90V131h-90Z" fill="#4e5a61"/>
      <path id="Path_39" data-name="Path 39" d="M356.75,275h90V464h-90Z" fill="#4e5a61"/>
      <path id="Path_40" data-name="Path 40" d="M356.75,18h90V131h-90Z" fill="#4e5a61"/>
    </g>
    <path id="Path_41" data-name="Path 41" d="M292.956,200,332,155l-7.852-41h-105L176,153l11.956,47Z" fill="#ff9e22"/>
    <path id="Path_42" data-name="Path 42" d="M114.148,114H0v86l45,9,37.956-9L122,153Z" fill="#ff9e22"/>
    <path id="Path_43" data-name="Path 43" d="M187.956,200l31.192-86h-105L82.956,200,136,212Z" fill="#f4d33c"/>
    <path id="Path_44" data-name="Path 44" d="M0,200v86.252H51.673L86,246l-3.044-46Z" fill="#ff7037"/>
    <path id="Path_45" data-name="Path 45" d="M482,200V114H429.148L386,154l11.956,46L436,217Z" fill="#ff9e22"/>
    <path id="Path_46" data-name="Path 46" d="M397.956,200,351,243l15.673,43.252H482V200Z" fill="#ff7037"/>
    <path id="Path_47" data-name="Path 47" d="M187.956,200,147,241l9.673,45.252h105L295,244l-2.044-44Z" fill="#ff7037"/>
    <path id="Path_48" data-name="Path 48" d="M397.956,200l31.192-86h-105l-31.192,86L351,215Z" fill="#f4d33c"/>
    <path id="Path_49" data-name="Path 49" d="M82.956,200,51.673,286.252h105L187.956,200Z" fill="#ff9e22"/>
    <path id="Path_50" data-name="Path 50" d="M292.956,200l-31.283,86.252h105L397.956,200Z" fill="#ff9e22"/>
  </g>
</svg>
